<svg xmlns="http://www.w3.org/2000/svg" xlink="http://www.w3.org/1999/xlink" width="0" height="0" style="display:none;"><symbol viewBox="0 0 24 24" id="moon-fill"><path fill="none" d="M0 0h24v24H0z"/><path d="M11.38 2.019a7.5 7.5 0 1 0 10.6 10.6C21.662 17.854 17.316 22 12.001 22 6.477 22 2 17.523 2 12c0-5.315 4.146-9.661 9.38-9.981z"/></symbol><symbol viewBox="0 0 24 24" id="contrast-2-line"><path fill="none" d="M0 0h24v24H0z"/><path d="M12 22C6.477 22 2 17.523 2 12S6.477 2 12 2s10 4.477 10 10-4.477 10-10 10zm0-2a8 8 0 1 0 0-16 8 8 0 0 0 0 16zm-5-4.68a8.965 8.965 0 0 0 5.707-2.613A8.965 8.965 0 0 0 15.32 7 6 6 0 1 1 7 15.32z"/></symbol><symbol viewBox="0 0 24 24" id="contrast-2-fill"><path fill="none" d="M0 0h24v24H0z"/><path d="M12 22C6.477 22 2 17.523 2 12S6.477 2 12 2s10 4.477 10 10-4.477 10-10 10zm-6.671-5.575A8 8 0 1 0 16.425 5.328a8.997 8.997 0 0 1-2.304 8.793 8.997 8.997 0 0 1-8.792 2.304z"/></symbol><symbol viewBox="0 0 24 24" id="sun-line"><path fill="none" d="M0 0h24v24H0z"/><path d="M12 18a6 6 0 1 1 0-12 6 6 0 0 1 0 12zm0-2a4 4 0 1 0 0-8 4 4 0 0 0 0 8zM11 1h2v3h-2V1zm0 19h2v3h-2v-3zM3.515 4.929l1.414-1.414L7.05 5.636 5.636 7.05 3.515 4.93zM16.95 18.364l1.414-1.414 2.121 2.121-1.414 1.414-2.121-2.121zm2.121-14.85l1.414 1.415-2.121 2.121-1.414-1.414 2.121-2.121zM5.636 16.95l1.414 1.414-2.121 2.121-1.414-1.414 2.121-2.121zM23 11v2h-3v-2h3zM4 11v2H1v-2h3z"/></symbol><symbol viewBox="0 0 24 24" id="sun-fill"><path fill="none" d="M0 0h24v24H0z"/><path d="M12 18a6 6 0 1 1 0-12 6 6 0 0 1 0 12zM11 1h2v3h-2V1zm0 19h2v3h-2v-3zM3.515 4.929l1.414-1.414L7.05 5.636 5.636 7.05 3.515 4.93zM16.95 18.364l1.414-1.414 2.121 2.121-1.414 1.414-2.121-2.121zm2.121-14.85l1.414 1.415-2.121 2.121-1.414-1.414 2.121-2.121zM5.636 16.95l1.414 1.414-2.121 2.121-1.414-1.414 2.121-2.121zM23 11v2h-3v-2h3zM4 11v2H1v-2h3z"/></symbol><symbol viewBox="0 0 24 24" id="checkbox-blank-circle-line"><path fill="none" d="M0 0h24v24H0z"/><path d="M12 22C6.477 22 2 17.523 2 12S6.477 2 12 2s10 4.477 10 10-4.477 10-10 10zm0-2a8 8 0 1 0 0-16 8 8 0 0 0 0 16z"/></symbol><symbol viewBox="0 0 24 24" id="checkbox-blank-circle-fill"><path fill="none" d="M0 0h24v24H0z"/><path d="undefined"/></symbol><symbol viewBox="0 0 24 24" id="home-4-line"><path fill="none" d="M0 0h24v24H0z"/><path d="M19 21H5a1 1 0 0 1-1-1v-9H1l10.327-9.388a1 1 0 0 1 1.346 0L23 11h-3v9a1 1 0 0 1-1 1zm-6-2h5V9.157l-6-5.454-6 5.454V19h5v-6h2v6z"/></symbol><symbol viewBox="0 0 24 24" id="arrow-left-up-line"><path fill="none" d="M0 0h24v24H0z"/><path d="M9.414 8l8.607 8.607-1.414 1.414L8 9.414V17H6V6h11v2z"/></symbol><symbol viewBox="0 0 24 24" id="arrow-up-line"><path fill="none" d="M0 0h24v24H0z"/><path d="M13 7.828V20h-2V7.828l-5.364 5.364-1.414-1.414L12 4l7.778 7.778-1.414 1.414L13 7.828z"/></symbol><symbol viewBox="0 0 24 24" id="arrow-right-line"><path fill="none" d="M0 0h24v24H0z"/><path d="M16.172 11l-5.364-5.364 1.414-1.414L20 12l-7.778 7.778-1.414-1.414L16.172 13H4v-2z"/></symbol><symbol viewBox="0 0 24 24" id="arrow-down-line"><path fill="none" d="M0 0h24v24H0z"/><path d="M13 16.172l5.364-5.364 1.414 1.414L12 20l-7.778-7.778 1.414-1.414L11 16.172V4h2v12.172z"/></symbol><symbol viewBox="0 0 24 24" id="arrow-left-line"><path fill="none" d="M0 0h24v24H0z"/><path d="M7.828 11H20v2H7.828l5.364 5.364-1.414 1.414L4 12l7.778-7.778 1.414 1.414z"/></symbol><symbol viewBox="0 0 24 24" id="arrow-down-s-line"><path fill="none" d="M0 0h24v24H0z"/><path d="M12 13.172l4.95-4.95 1.414 1.414L12 16 5.636 9.636 7.05 8.222z"/></symbol><symbol viewBox="0 0 24 24" id="arrow-up-s-line"><path fill="none" d="M0 0h24v24H0z"/><path d="M12 10.828l-4.95 4.95-1.414-1.414L12 8l6.364 6.364-1.414 1.414z"/></symbol><symbol viewBox="0 0 24 24" id="behance-fill"><path fill="none" d="M0 0h24v24H0z"/><path d="M7.443 5.35c.639 0 1.23.05 1.77.198a3.83 3.83 0 0 1 1.377.544c.394.247.689.594.885 1.039.197.445.295.99.295 1.583 0 .693-.147 1.286-.491 1.731-.295.446-.787.841-1.377 1.138.836.248 1.475.693 1.868 1.286.394.594.64 1.336.64 2.177 0 .693-.148 1.286-.394 1.781-.246.495-.639.94-1.082 1.237a5.078 5.078 0 0 1-1.573.692c-.59.149-1.18.248-1.77.248H1V5.35h6.443zm-.394 5.54c.541 0 .984-.148 1.328-.395.344-.247.492-.693.492-1.237 0-.297-.05-.594-.148-.791-.098-.198-.246-.347-.442-.495-.197-.099-.394-.198-.64-.247-.246-.05-.491-.05-.787-.05H4v3.216h3.05zm.148 5.838c.295 0 .59-.05.836-.099a1.72 1.72 0 0 0 .688-.297 1.76 1.76 0 0 0 .492-.544c.098-.247.197-.544.197-.89 0-.693-.197-1.188-.59-1.534-.394-.297-.935-.445-1.574-.445H4v3.81h3.197zm9.492-.05c.393.396.983.594 1.77.594.541 0 1.033-.148 1.426-.395.394-.297.64-.594.738-.891h2.41c-.394 1.187-.984 2.028-1.77 2.572-.788.495-1.722.792-2.853.792a5.753 5.753 0 0 1-2.115-.396 3.93 3.93 0 0 1-1.574-1.088 3.93 3.93 0 0 1-.983-1.633c-.246-.643-.345-1.335-.345-2.127 0-.742.099-1.434.345-2.078a5.34 5.34 0 0 1 1.032-1.682c.443-.445.984-.84 1.574-1.088a5.49 5.49 0 0 1 2.066-.396c.836 0 1.574.149 2.213.495.64.346 1.131.742 1.525 1.336a6.01 6.01 0 0 1 .885 1.88c.098.692.147 1.385.098 2.176H16c0 .792.295 1.534.689 1.93zm3.098-5.194c-.344-.346-.885-.544-1.525-.544-.442 0-.787.099-1.082.247-.295.149-.491.347-.688.545a1.322 1.322 0 0 0-.344.692c-.05.248-.099.445-.099.643h4.426c-.098-.742-.344-1.236-.688-1.583zM15.459 6.29h5.508v1.336H15.46V6.29z"/></symbol><symbol viewBox="0 0 24 24" id="linkedin-box-line"><path fill="none" d="M0 0h24v24H0z"/><path d="M4 3h16a1 1 0 0 1 1 1v16a1 1 0 0 1-1 1H4a1 1 0 0 1-1-1V4a1 1 0 0 1 1-1zm1 2v14h14V5H5zm2.5 4a1.5 1.5 0 1 1 0-3 1.5 1.5 0 0 1 0 3zm-1 1h2v7.5h-2V10zm5.5.43c.584-.565 1.266-.93 2-.93 2.071 0 3.5 1.679 3.5 3.75v4.25h-2v-4.25a1.75 1.75 0 0 0-3.5 0v4.25h-2V10h2v.43z"/></symbol><symbol viewBox="0 0 24 24" id="linkedin-box-fill"><path fill="none" d="M0 0h24v24H0z"/><path d="M18.335 18.339H15.67v-4.177c0-.996-.02-2.278-1.39-2.278-1.389 0-1.601 1.084-1.601 2.205v4.25h-2.666V9.75h2.56v1.17h.035c.358-.674 1.228-1.387 2.528-1.387 2.7 0 3.2 1.778 3.2 4.091v4.715zM7.003 8.575a1.546 1.546 0 0 1-1.548-1.549 1.548 1.548 0 1 1 1.547 1.549zm1.336 9.764H5.666V9.75H8.34v8.589zM19.67 3H4.329C3.593 3 3 3.58 3 4.297v15.406C3 20.42 3.594 21 4.328 21h15.338C20.4 21 21 20.42 21 19.703V4.297C21 3.58 20.4 3 19.666 3h.003z"/></symbol><symbol viewBox="0 0 24 24" id="linkedin-fill"><path fill="none" d="M0 0h24v24H0z"/><path d="M6.94 5a2 2 0 1 1-4-.002 2 2 0 0 1 4 .002zM7 8.48H3V21h4V8.48zm6.32 0H9.34V21h3.94v-6.57c0-3.66 4.77-4 4.77 0V21H22v-7.93c0-6.17-7.06-5.94-8.72-2.91l.04-1.68z"/></symbol><symbol viewBox="0 0 24 24" id="facebook-box-line"><path fill="none" d="M0 0h24v24H0z"/><path d="M14 19h5V5H5v14h7v-5h-2v-2h2v-1.654c0-1.337.14-1.822.4-2.311A2.726 2.726 0 0 1 13.536 6.9c.382-.205.857-.328 1.687-.381.329-.021.755.005 1.278.08v1.9H16c-.917 0-1.296.043-1.522.164a.727.727 0 0 0-.314.314c-.12.226-.164.45-.164 1.368V12h2.5l-.5 2h-2v5zM4 3h16a1 1 0 0 1 1 1v16a1 1 0 0 1-1 1H4a1 1 0 0 1-1-1V4a1 1 0 0 1 1-1z"/></symbol><symbol viewBox="0 0 24 24" id="facebook-box-fill"><path fill="none" d="M0 0h24v24H0z"/><path d="M15.402 21v-6.966h2.333l.349-2.708h-2.682V9.598c0-.784.218-1.319 1.342-1.319h1.434V5.857a19.19 19.19 0 0 0-2.09-.107c-2.067 0-3.482 1.262-3.482 3.58v1.996h-2.338v2.708h2.338V21H4a1 1 0 0 1-1-1V4a1 1 0 0 1 1-1h16a1 1 0 0 1 1 1v16a1 1 0 0 1-1 1h-4.598z"/></symbol><symbol viewBox="0 0 24 24" id="facebook-fill"><path fill="none" d="M0 0h24v24H0z"/><path d="M14 13.5h2.5l1-4H14v-2c0-1.03 0-2 2-2h1.5V2.14c-.326-.043-1.557-.14-2.857-.14C11.928 2 10 3.657 10 6.7v2.8H7v4h3V22h4v-8.5z"/></symbol><symbol viewBox="0 0 24 24" id="attachment-line"><path fill="none" d="M0 0h24v24H0z"/><path d="M14 13.5V8a4 4 0 1 0-8 0v5.5a6.5 6.5 0 1 0 13 0V4h2v9.5a8.5 8.5 0 1 1-17 0V8a6 6 0 1 1 12 0v5.5a3.5 3.5 0 0 1-7 0V8h2v5.5a1.5 1.5 0 0 0 3 0z"/></symbol><symbol viewBox="0 0 24 24" id="mail-line"><path fill="none" d="M0 0h24v24H0z"/><path d="M3 3h18a1 1 0 0 1 1 1v16a1 1 0 0 1-1 1H3a1 1 0 0 1-1-1V4a1 1 0 0 1 1-1zm17 4.238l-7.928 7.1L4 7.216V19h16V7.238zM4.511 5l7.55 6.662L19.502 5H4.511z"/></symbol><symbol viewBox="0 0 24 24" id="attachment-fill"><path fill="none" d="M0 0h24v24H0z"/><path d="M20.997 2.992L21 21.008a1 1 0 0 1-.993.992H3.993A.993.993 0 0 1 3 21.008V2.992A1 1 0 0 1 3.993 2h16.01c.549 0 .994.444.994.992zM9 13V9a1 1 0 1 1 2 0v4a1 1 0 0 0 2 0V9a3 3 0 0 0-6 0v4a5 5 0 0 0 10 0V8h-2v5a3 3 0 0 1-6 0z"/></symbol><symbol viewBox="0 0 24 24" id="chat-2-line"><path fill="none" d="M0 0h24v24H0z"/><path d="M14.45 19L12 22.5 9.55 19H3a1 1 0 0 1-1-1V4a1 1 0 0 1 1-1h18a1 1 0 0 1 1 1v14a1 1 0 0 1-1 1h-6.55zm-1.041-2H20V5H4v12h6.591L12 19.012 13.409 17z"/></symbol><symbol viewBox="0 0 24 24" id="chat-4-line"><path fill="none" d="M0 0h24v24H0z"/><path d="M5.763 17H20V5H4v13.385L5.763 17zm.692 2L2 22.5V4a1 1 0 0 1 1-1h18a1 1 0 0 1 1 1v14a1 1 0 0 1-1 1H6.455z"/></symbol><symbol viewBox="0 0 24 24" id="message-2-line"><path fill="none" d="M0 0h24v24H0z"/><path d="M6.455 19L2 22.5V4a1 1 0 0 1 1-1h18a1 1 0 0 1 1 1v14a1 1 0 0 1-1 1H6.455zm-.692-2H20V5H4v13.385L5.763 17zM11 10h2v2h-2v-2zm-4 0h2v2H7v-2zm8 0h2v2h-2v-2z"/></symbol><symbol viewBox="0 0 24 24" id="contrast-line"><path fill="none" d="M0 0h24v24H0z"/><path d="M12 22C6.477 22 2 17.523 2 12S6.477 2 12 2s10 4.477 10 10-4.477 10-10 10zm0-2a8 8 0 1 0 0-16 8 8 0 0 0 0 16zm0-2V6a6 6 0 1 1 0 12z"/></symbol><symbol viewBox="0 0 24 24" id="contrast-fill"><path fill="none" d="M0 0h24v24H0z"/><path d="M12 22C6.477 22 2 17.523 2 12S6.477 2 12 2s10 4.477 10 10-4.477 10-10 10zm0-2V4a8 8 0 1 0 0 16z"/></symbol><symbol viewBox="0 0 24 24" id="focus-line"><path fill="none" d="M0 0h24v24H0z"/><path d="M12 20a8 8 0 1 0 0-16 8 8 0 0 0 0 16zm0 2C6.477 22 2 17.523 2 12S6.477 2 12 2s10 4.477 10 10-4.477 10-10 10zm0-8a2 2 0 1 1 0-4 2 2 0 0 1 0 4z"/></symbol><symbol viewBox="0 0 24 24" id="focus-2-line"><path fill="none" d="M0 0h24v24H0z"/><path d="M12 20a8 8 0 1 0 0-16 8 8 0 0 0 0 16zm0 2C6.477 22 2 17.523 2 12S6.477 2 12 2s10 4.477 10 10-4.477 10-10 10zm0-6a4 4 0 1 0 0-8 4 4 0 0 0 0 8zm0 2a6 6 0 1 1 0-12 6 6 0 0 1 0 12zm0-4a2 2 0 1 1 0-4 2 2 0 0 1 0 4z"/></symbol><symbol viewBox="0 0 24 24" id="focus-fill"><path fill="none" d="M0 0h24v24H0z"/><path d="M12 2c5.52 0 10 4.48 10 10s-4.48 10-10 10S2 17.52 2 12 6.48 2 12 2zm0 8c-1.1 0-2 .9-2 2s.9 2 2 2 2-.9 2-2-.9-2-2-2z"/></symbol><symbol viewBox="0 0 24 24" id="file-2-line"><path fill="none" d="M0 0h24v24H0z"/><path d="M3 8l6.003-6h10.995C20.55 2 21 2.455 21 2.992v18.016a.993.993 0 0 1-.993.992H3.993A1 1 0 0 1 3 20.993V8zm7-4v5H5v11h14V4h-9z"/></symbol><symbol viewBox="0 0 24 24" id="file-pdf-line"><path fill="none" d="M0 0h24v24H0z"/><path d="M12 16H8V8h4a4 4 0 1 1 0 8zm-2-6v4h2a2 2 0 1 0 0-4h-2zm5-6H5v16h14V8h-4V4zM3 2.992C3 2.444 3.447 2 3.999 2H16l5 5v13.993A1 1 0 0 1 20.007 22H3.993A1 1 0 0 1 3 21.008V2.992z"/></symbol><symbol viewBox="0 0 24 24" id="file-download-line"><path fill="none" d="M0 0h24v24H0z"/><path d="M13 12h3l-4 4-4-4h3V8h2v4zm2-8H5v16h14V8h-4V4zM3 2.992C3 2.444 3.447 2 3.999 2H16l5 5v13.993A1 1 0 0 1 20.007 22H3.993A1 1 0 0 1 3 21.008V2.992z"/></symbol><symbol viewBox="0 0 24 24" id="file-download-fill"><path fill="none" d="M0 0h24v24H0z"/><path d="M16 2l5 5v14.008a.993.993 0 0 1-.993.992H3.993A1 1 0 0 1 3 21.008V2.992C3 2.444 3.445 2 3.993 2H16zm-3 10V8h-2v4H8l4 4 4-4h-3z"/></symbol><symbol viewBox="0 0 24 24" id="attachment-2"><path fill="none" d="M0 0h24v24H0z"/><path d="M14.828 7.757l-5.656 5.657a1 1 0 1 0 1.414 1.414l5.657-5.656A3 3 0 1 0 12 4.929l-5.657 5.657a5 5 0 1 0 7.071 7.07L19.071 12l1.414 1.414-5.657 5.657a7 7 0 1 1-9.9-9.9l5.658-5.656a5 5 0 0 1 7.07 7.07L12 16.244A3 3 0 1 1 7.757 12l5.657-5.657 1.414 1.414z"/></symbol><symbol viewBox="0 0 24 24" id="codepen-line"><path fill="none" d="M0 0h24v24H0z"/><path d="M16.5 13.202L13 15.535v3.596L19.197 15 16.5 13.202zM14.697 12L12 10.202 9.303 12 12 13.798 14.697 12zM20 10.869L18.303 12 20 13.131V10.87zM19.197 9L13 4.869v3.596l3.5 2.333L19.197 9zM7.5 10.798L11 8.465V4.869L4.803 9 7.5 10.798zM4.803 15L11 19.131v-3.596l-3.5-2.333L4.803 15zM4 13.131L5.697 12 4 10.869v2.262zM2 9a1 1 0 0 1 .445-.832l9-6a1 1 0 0 1 1.11 0l9 6A1 1 0 0 1 22 9v6a1 1 0 0 1-.445.832l-9 6a1 1 0 0 1-1.11 0l-9-6A1 1 0 0 1 2 15V9z"/></symbol><symbol viewBox="0 0 24 24" id="github-line"><path fill="none" d="M0 0h24v24H0z"/><path d="M5.883 18.653c-.3-.2-.558-.455-.86-.816a50.32 50.32 0 0 1-.466-.579c-.463-.575-.755-.84-1.057-.949a1 1 0 0 1 .676-1.883c.752.27 1.261.735 1.947 1.588-.094-.117.34.427.433.539.19.227.33.365.44.438.204.137.587.196 1.15.14.023-.382.094-.753.202-1.095C5.38 15.31 3.7 13.396 3.7 9.64c0-1.24.37-2.356 1.058-3.292-.218-.894-.185-1.975.302-3.192a1 1 0 0 1 .63-.582c.081-.024.127-.035.208-.047.803-.123 1.937.17 3.415 1.096A11.731 11.731 0 0 1 12 3.315c.912 0 1.818.104 2.684.308 1.477-.933 2.613-1.226 3.422-1.096.085.013.157.03.218.05a1 1 0 0 1 .616.58c.487 1.216.52 2.297.302 3.19.691.936 1.058 2.045 1.058 3.293 0 3.757-1.674 5.665-4.642 6.392.125.415.19.879.19 1.38a300.492 300.492 0 0 1-.012 2.716 1 1 0 0 1-.019 1.958c-1.139.228-1.983-.532-1.983-1.525l.002-.446.005-.705c.005-.708.007-1.338.007-1.998 0-.697-.183-1.152-.425-1.36-.661-.57-.326-1.655.54-1.752 2.967-.333 4.337-1.482 4.337-4.66 0-.955-.312-1.744-.913-2.404a1 1 0 0 1-.19-1.045c.166-.414.237-.957.096-1.614l-.01.003c-.491.139-1.11.44-1.858.949a1 1 0 0 1-.833.135A9.626 9.626 0 0 0 12 5.315c-.89 0-1.772.119-2.592.35a1 1 0 0 1-.83-.134c-.752-.507-1.374-.807-1.868-.947-.144.653-.073 1.194.092 1.607a1 1 0 0 1-.189 1.045C6.016 7.89 5.7 8.694 5.7 9.64c0 3.172 1.371 4.328 4.322 4.66.865.097 1.201 1.177.544 1.748-.192.168-.429.732-.429 1.364v3.15c0 .986-.835 1.725-1.96 1.528a1 1 0 0 1-.04-1.962v-.99c-.91.061-1.662-.088-2.254-.485z"/></symbol><symbol viewBox="0 0 24 24" id="github-fill"><path fill="none" d="M0 0h24v24H0z"/><path d="M12 2C6.475 2 2 6.475 2 12a9.994 9.994 0 0 0 6.838 9.488c.5.087.687-.213.687-.476 0-.237-.013-1.024-.013-1.862-2.512.463-3.162-.612-3.362-1.175-.113-.288-.6-1.175-1.025-1.413-.35-.187-.85-.65-.013-.662.788-.013 1.35.725 1.538 1.025.9 1.512 2.338 1.087 2.912.825.088-.65.35-1.087.638-1.337-2.225-.25-4.55-1.113-4.55-4.938 0-1.088.387-1.987 1.025-2.688-.1-.25-.45-1.275.1-2.65 0 0 .837-.262 2.75 1.026a9.28 9.28 0 0 1 2.5-.338c.85 0 1.7.112 2.5.337 1.912-1.3 2.75-1.024 2.75-1.024.55 1.375.2 2.4.1 2.65.637.7 1.025 1.587 1.025 2.687 0 3.838-2.337 4.688-4.562 4.938.362.312.675.912.675 1.85 0 1.337-.013 2.412-.013 2.75 0 .262.188.574.688.474A10.016 10.016 0 0 0 22 12c0-5.525-4.475-10-10-10z"/></symbol><symbol viewBox="0 0 24 24" id="facebook-circle-fill"><path fill="none" d="M0 0h24v24H0z"/><path d="M12 2C6.477 2 2 6.477 2 12c0 4.991 3.657 9.128 8.438 9.879V14.89h-2.54V12h2.54V9.797c0-2.506 1.492-3.89 3.777-3.89 1.094 0 2.238.195 2.238.195v2.46h-1.26c-1.243 0-1.63.771-1.63 1.562V12h2.773l-.443 2.89h-2.33v6.989C18.343 21.129 22 16.99 22 12c0-5.523-4.477-10-10-10z"/></symbol><symbol viewBox="0 0 24 24" id="facebook-circle-line"><path fill="none" d="M0 0h24v24H0z"/><path d="M13 19.938A8.001 8.001 0 0 0 12 4a8 8 0 0 0-1 15.938V14H9v-2h2v-1.654c0-1.337.14-1.822.4-2.311A2.726 2.726 0 0 1 12.536 6.9c.382-.205.857-.328 1.687-.381.329-.021.755.005 1.278.08v1.9H15c-.917 0-1.296.043-1.522.164a.727.727 0 0 0-.314.314c-.12.226-.164.45-.164 1.368V12h2.5l-.5 2h-2v5.938zM12 22C6.477 22 2 17.523 2 12S6.477 2 12 2s10 4.477 10 10-4.477 10-10 10z"/></symbol><symbol viewBox="0 0 24 24" id="instagram-line"><path fill="none" d="M0 0h24v24H0z"/><path d="M12 9a3 3 0 1 0 0 6 3 3 0 0 0 0-6zm0-2a5 5 0 1 1 0 10 5 5 0 0 1 0-10zm6.5-.25a1.25 1.25 0 0 1-2.5 0 1.25 1.25 0 0 1 2.5 0zM12 4c-2.474 0-2.878.007-4.029.058-.784.037-1.31.142-1.798.332-.434.168-.747.369-1.08.703a2.89 2.89 0 0 0-.704 1.08c-.19.49-.295 1.015-.331 1.798C4.006 9.075 4 9.461 4 12c0 2.474.007 2.878.058 4.029.037.783.142 1.31.331 1.797.17.435.37.748.702 1.08.337.336.65.537 1.08.703.494.191 1.02.297 1.8.333C9.075 19.994 9.461 20 12 20c2.474 0 2.878-.007 4.029-.058.782-.037 1.309-.142 1.797-.331.433-.169.748-.37 1.08-.702.337-.337.538-.65.704-1.08.19-.493.296-1.02.332-1.8.052-1.104.058-1.49.058-4.029 0-2.474-.007-2.878-.058-4.029-.037-.782-.142-1.31-.332-1.798a2.911 2.911 0 0 0-.703-1.08 2.884 2.884 0 0 0-1.08-.704c-.49-.19-1.016-.295-1.798-.331C14.925 4.006 14.539 4 12 4zm0-2c2.717 0 3.056.01 4.122.06 1.065.05 1.79.217 2.428.465.66.254 1.216.598 1.772 1.153a4.908 4.908 0 0 1 1.153 1.772c.247.637.415 1.363.465 2.428.047 1.066.06 1.405.06 4.122 0 2.717-.01 3.056-.06 4.122-.05 1.065-.218 1.79-.465 2.428a4.883 4.883 0 0 1-1.153 1.772 4.915 4.915 0 0 1-1.772 1.153c-.637.247-1.363.415-2.428.465-1.066.047-1.405.06-4.122.06-2.717 0-3.056-.01-4.122-.06-1.065-.05-1.79-.218-2.428-.465a4.89 4.89 0 0 1-1.772-1.153 4.904 4.904 0 0 1-1.153-1.772c-.248-.637-.415-1.363-.465-2.428C2.013 15.056 2 14.717 2 12c0-2.717.01-3.056.06-4.122.05-1.066.217-1.79.465-2.428a4.88 4.88 0 0 1 1.153-1.772A4.897 4.897 0 0 1 5.45 2.525c.638-.248 1.362-.415 2.428-.465C8.944 2.013 9.283 2 12 2z"/></symbol><symbol viewBox="0 0 24 24" id="instagram-fill"><path fill="none" d="M0 0h24v24H0z"/><path d="M12 2c2.717 0 3.056.01 4.122.06 1.065.05 1.79.217 2.428.465.66.254 1.216.598 1.772 1.153a4.908 4.908 0 0 1 1.153 1.772c.247.637.415 1.363.465 2.428.047 1.066.06 1.405.06 4.122 0 2.717-.01 3.056-.06 4.122-.05 1.065-.218 1.79-.465 2.428a4.883 4.883 0 0 1-1.153 1.772 4.915 4.915 0 0 1-1.772 1.153c-.637.247-1.363.415-2.428.465-1.066.047-1.405.06-4.122.06-2.717 0-3.056-.01-4.122-.06-1.065-.05-1.79-.218-2.428-.465a4.89 4.89 0 0 1-1.772-1.153 4.904 4.904 0 0 1-1.153-1.772c-.248-.637-.415-1.363-.465-2.428C2.013 15.056 2 14.717 2 12c0-2.717.01-3.056.06-4.122.05-1.066.217-1.79.465-2.428a4.88 4.88 0 0 1 1.153-1.772A4.897 4.897 0 0 1 5.45 2.525c.638-.248 1.362-.415 2.428-.465C8.944 2.013 9.283 2 12 2zm0 5a5 5 0 1 0 0 10 5 5 0 0 0 0-10zm6.5-.25a1.25 1.25 0 0 0-2.5 0 1.25 1.25 0 0 0 2.5 0zM12 9a3 3 0 1 1 0 6 3 3 0 0 1 0-6z"/></symbol><symbol viewBox="0 0 24 24" id="pinterest-line"><path fill="none" d="M0 0h24v24H0z"/><path d="M8.49 19.191c.024-.336.072-.671.144-1.001.063-.295.254-1.13.534-2.34l.007-.03.387-1.668c.079-.34.14-.604.181-.692a3.46 3.46 0 0 1-.284-1.423c0-1.337.756-2.373 1.736-2.373.36-.006.704.15.942.426.238.275.348.644.302.996 0 .453-.085.798-.453 2.035-.071.238-.12.404-.166.571-.051.188-.095.358-.132.522-.096.386-.008.797.237 1.106a1.2 1.2 0 0 0 1.006.456c1.492 0 2.6-1.985 2.6-4.548 0-1.97-1.29-3.274-3.432-3.274A3.878 3.878 0 0 0 9.2 9.1a4.13 4.13 0 0 0-1.195 2.961 2.553 2.553 0 0 0 .512 1.644c.181.14.25.383.175.59-.041.168-.14.552-.176.68a.41.41 0 0 1-.216.297.388.388 0 0 1-.355.002c-1.16-.479-1.796-1.778-1.796-3.44 0-2.985 2.491-5.584 6.192-5.584 3.135 0 5.481 2.329 5.481 5.14 0 3.532-1.932 6.104-4.69 6.104a2.508 2.508 0 0 1-2.046-.959l-.043.177-.207.852-.002.007c-.146.6-.248 1.017-.288 1.174-.106.355-.24.703-.4 1.04a8 8 0 1 0-1.656-.593zM12 22C6.477 22 2 17.523 2 12S6.477 2 12 2s10 4.477 10 10-4.477 10-10 10z"/></symbol><symbol viewBox="0 0 24 24" id="pinterest-fill"><path fill="none" d="M0 0h24v24H0z"/><path d="M13.37 2.094A10.003 10.003 0 0 0 8.002 21.17a7.757 7.757 0 0 1 .163-2.293c.185-.839 1.296-5.463 1.296-5.463a3.739 3.739 0 0 1-.324-1.577c0-1.485.857-2.593 1.923-2.593a1.334 1.334 0 0 1 1.342 1.508c0 .9-.578 2.262-.88 3.54a1.544 1.544 0 0 0 1.575 1.923c1.898 0 3.17-2.431 3.17-5.301 0-2.2-1.457-3.848-4.143-3.848a4.746 4.746 0 0 0-4.93 4.794 2.96 2.96 0 0 0 .648 1.97.48.48 0 0 1 .162.554c-.046.184-.162.623-.208.784a.354.354 0 0 1-.51.254c-1.384-.554-2.036-2.077-2.036-3.816 0-2.847 2.384-6.255 7.154-6.255 3.796 0 6.32 2.777 6.32 5.747 0 3.909-2.177 6.848-5.394 6.848a2.861 2.861 0 0 1-2.454-1.246s-.578 2.316-.692 2.754a8.026 8.026 0 0 1-1.019 2.131c.923.28 1.882.42 2.846.416a9.988 9.988 0 0 0 9.996-10.003 10.002 10.002 0 0 0-8.635-9.903z"/></symbol><symbol viewBox="0 0 24 24" id="navigation-fill"><path fill="none" d="M0 0h24v24H0z"/><path d="M2.9 2.3l18.805 6.268a.5.5 0 0 1 .028.939L13 13l-4.425 8.85a.5.5 0 0 1-.928-.086L2.26 2.911A.5.5 0 0 1 2.9 2.3z"/></symbol><symbol viewBox="0 0 24 24" id="navigation-line"><path fill="none" d="M0 0h24v24H0z"/><path d="M4.965 5.096l3.546 12.41 3.04-6.08 5.637-2.255L4.965 5.096zM2.899 2.3l18.806 6.268a.5.5 0 0 1 .028.939L13 13l-4.425 8.85a.5.5 0 0 1-.928-.086L2.26 2.911A.5.5 0 0 1 2.9 2.3z"/></symbol><symbol viewBox="0 0 24 24" id="more-fill"><path fill="none" d="M0 0h24v24H0z"/><path d="M5 10c-1.1 0-2 .9-2 2s.9 2 2 2 2-.9 2-2-.9-2-2-2zm14 0c-1.1 0-2 .9-2 2s.9 2 2 2 2-.9 2-2-.9-2-2-2zm-7 0c-1.1 0-2 .9-2 2s.9 2 2 2 2-.9 2-2-.9-2-2-2z"/></symbol><symbol viewBox="0 0 24 24" id="more-2-fill"><path fill="none" d="M0 0h24v24H0z"/><path d="M12 3c-1.1 0-2 .9-2 2s.9 2 2 2 2-.9 2-2-.9-2-2-2zm0 14c-1.1 0-2 .9-2 2s.9 2 2 2 2-.9 2-2-.9-2-2-2zm0-7c-1.1 0-2 .9-2 2s.9 2 2 2 2-.9 2-2-.9-2-2-2z"/></symbol><symbol viewBox="0 0 24 24" id="checkbox-circle-line"><path fill="none" d="M0 0h24v24H0z"/><path d="M12 22C6.477 22 2 17.523 2 12S6.477 2 12 2s10 4.477 10 10-4.477 10-10 10zm0-2a8 8 0 1 0 0-16 8 8 0 0 0 0 16zm-.997-4L6.76 11.757l1.414-1.414 2.829 2.829 5.656-5.657 1.415 1.414L11.003 16z"/></symbol><symbol viewBox="0 0 24 24" id="checkbox-circle-fill"><path fill="none" d="M0 0h24v24H0z"/><path d="M12 22C6.477 22 2 17.523 2 12S6.477 2 12 2s10 4.477 10 10-4.477 10-10 10zm-.997-6l7.07-7.071-1.414-1.414-5.656 5.657-2.829-2.829-1.414 1.414L11.003 16z"/></symbol><symbol viewBox="0 0 24 24" id="checkbox-blank-fill"><path fill="none" d="M0 0h24v24H0z"/><path d="M4 3h16a1 1 0 0 1 1 1v16a1 1 0 0 1-1 1H4a1 1 0 0 1-1-1V4a1 1 0 0 1 1-1z"/></symbol><symbol viewBox="0 0 24 24" id="checkbox-blank-line"><path fill="none" d="M0 0h24v24H0z"/><path d="M4 3h16a1 1 0 0 1 1 1v16a1 1 0 0 1-1 1H4a1 1 0 0 1-1-1V4a1 1 0 0 1 1-1zm1 2v14h14V5H5z"/></symbol><symbol viewBox="0 0 24 24" id="checkbox-line"><path fill="none" d="M0 0h24v24H0z"/><path d="M4 3h16a1 1 0 0 1 1 1v16a1 1 0 0 1-1 1H4a1 1 0 0 1-1-1V4a1 1 0 0 1 1-1zm1 2v14h14V5H5zm6.003 11L6.76 11.757l1.414-1.414 2.829 2.829 5.656-5.657 1.415 1.414L11.003 16z"/></symbol><symbol viewBox="0 0 24 24" id="checkbox-fill"><path fill="none" d="M0 0h24v24H0z"/><path d="M4 3h16a1 1 0 0 1 1 1v16a1 1 0 0 1-1 1H4a1 1 0 0 1-1-1V4a1 1 0 0 1 1-1zm7.003 13l7.07-7.071-1.414-1.414-5.656 5.657-2.829-2.829-1.414 1.414L11.003 16z"/></symbol><symbol viewBox="0 0 24 24" id="alert-line"><path fill="none" d="M0 0h24v24H0z"/><path d="M12.866 3l9.526 16.5a1 1 0 0 1-.866 1.5H2.474a1 1 0 0 1-.866-1.5L11.134 3a1 1 0 0 1 1.732 0zm-8.66 16h15.588L12 5.5 4.206 19zM11 16h2v2h-2v-2zm0-7h2v5h-2V9z"/></symbol><symbol viewBox="0 0 24 24" id="alert-fill"><path fill="none" d="M0 0h24v24H0z"/><path d="M12.866 3l9.526 16.5a1 1 0 0 1-.866 1.5H2.474a1 1 0 0 1-.866-1.5L11.134 3a1 1 0 0 1 1.732 0zM11 16v2h2v-2h-2zm0-7v5h2V9h-2z"/></symbol><symbol viewBox="0 0 24 24" id="check-line"><path fill="none" d="M0 0h24v24H0z"/><path d="M10 15.172l9.192-9.193 1.415 1.414L10 18l-6.364-6.364 1.414-1.414z"/></symbol><symbol viewBox="0 0 24 24" id="close-line"><path fill="none" d="M0 0h24v24H0z"/><path d="M12 10.586l4.95-4.95 1.414 1.414-4.95 4.95 4.95 4.95-1.414 1.414-4.95-4.95-4.95 4.95-1.414-1.414 4.95-4.95-4.95-4.95L7.05 5.636z"/></symbol><symbol viewBox="0 0 24 24" id="radio-button-line"><path fill="none" d="M0 0h24v24H0z"/><path d="M12 22C6.477 22 2 17.523 2 12S6.477 2 12 2s10 4.477 10 10-4.477 10-10 10zm0-2a8 8 0 1 0 0-16 8 8 0 0 0 0 16zm0-3a5 5 0 1 1 0-10 5 5 0 0 1 0 10z"/></symbol><symbol viewBox="0 0 24 24" id="close-circle-line"><path fill="none" d="M0 0h24v24H0z"/><path d="M12 22C6.477 22 2 17.523 2 12S6.477 2 12 2s10 4.477 10 10-4.477 10-10 10zm0-2a8 8 0 1 0 0-16 8 8 0 0 0 0 16zm0-9.414l2.828-2.829 1.415 1.415L13.414 12l2.829 2.828-1.415 1.415L12 13.414l-2.828 2.829-1.415-1.415L10.586 12 7.757 9.172l1.415-1.415L12 10.586z"/></symbol><symbol viewBox="0 0 24 24" id="add-circle-line"><path fill="none" d="M0 0h24v24H0z"/><path d="M11 11V7h2v4h4v2h-4v4h-2v-4H7v-2h4zm1 11C6.477 22 2 17.523 2 12S6.477 2 12 2s10 4.477 10 10-4.477 10-10 10zm0-2a8 8 0 1 0 0-16 8 8 0 0 0 0 16z"/></symbol><symbol viewBox="0 0 24 24" id="indeterminate-circle-line"><path fill="none" d="M0 0h24v24H0z"/><path d="M12 22C6.477 22 2 17.523 2 12S6.477 2 12 2s10 4.477 10 10-4.477 10-10 10zm0-2a8 8 0 1 0 0-16 8 8 0 0 0 0 16zm-5-9h10v2H7v-2z"/></symbol><symbol viewBox="0 0 24 24" id="arrow-right-s-line"><path fill="none" d="M0 0h24v24H0z"/><path d="M13.172 12l-4.95-4.95 1.414-1.414L16 12l-6.364 6.364-1.414-1.414z"/></symbol><symbol viewBox="0 0 24 24" id="arrow-left-s-line"><path fill="none" d="M0 0h24v24H0z"/><path d="M10.828 12l4.95 4.95-1.414 1.414L8 12l6.364-6.364 1.414 1.414z"/></symbol><symbol viewBox="0 0 24 24" id="download-line"><path fill="none" d="M0 0h24v24H0z"/><path d="M3 19h18v2H3v-2zm10-5.828L19.071 7.1l1.414 1.414L12 17 3.515 8.515 4.929 7.1 11 13.17V2h2v11.172z"/></symbol><symbol viewBox="0 0 24 24" id="search-line"><path fill="none" d="M0 0h24v24H0z"/><path d="M18.031 16.617l4.283 4.282-1.415 1.415-4.282-4.283A8.96 8.96 0 0 1 11 20c-4.968 0-9-4.032-9-9s4.032-9 9-9 9 4.032 9 9a8.96 8.96 0 0 1-1.969 5.617zm-2.006-.742A6.977 6.977 0 0 0 18 11c0-3.868-3.133-7-7-7-3.868 0-7 3.132-7 7 0 3.867 3.132 7 7 7a6.977 6.977 0 0 0 4.875-1.975l.15-.15z"/></symbol><symbol viewBox="0 0 24 24" id="eye-line"><path fill="none" d="M0 0h24v24H0z"/><path d="M12 3c5.392 0 9.878 3.88 10.819 9-.94 5.12-5.427 9-10.819 9-5.392 0-9.878-3.88-10.819-9C2.121 6.88 6.608 3 12 3zm0 16a9.005 9.005 0 0 0 8.777-7 9.005 9.005 0 0 0-17.554 0A9.005 9.005 0 0 0 12 19zm0-2.5a4.5 4.5 0 1 1 0-9 4.5 4.5 0 0 1 0 9zm0-2a2.5 2.5 0 1 0 0-5 2.5 2.5 0 0 0 0 5z"/></symbol><symbol viewBox="0 0 24 24" id="eye-close-line"><path fill="none" d="M0 0h24v24H0z"/><path d="M9.342 18.782l-1.931-.518.787-2.939a10.988 10.988 0 0 1-3.237-1.872l-2.153 2.154-1.415-1.415 2.154-2.153a10.957 10.957 0 0 1-2.371-5.07l1.968-.359C3.903 10.812 7.579 14 12 14c4.42 0 8.097-3.188 8.856-7.39l1.968.358a10.957 10.957 0 0 1-2.37 5.071l2.153 2.153-1.415 1.415-2.153-2.154a10.988 10.988 0 0 1-3.237 1.872l.787 2.94-1.931.517-.788-2.94a11.072 11.072 0 0 1-3.74 0l-.788 2.94z"/></symbol><symbol viewBox="0 0 24 24" id="eye-fill"><path fill="none" d="M0 0h24v24H0z"/><path d="M1.181 12C2.121 6.88 6.608 3 12 3c5.392 0 9.878 3.88 10.819 9-.94 5.12-5.427 9-10.819 9-5.392 0-9.878-3.88-10.819-9zM12 17a5 5 0 1 0 0-10 5 5 0 0 0 0 10zm0-2a3 3 0 1 1 0-6 3 3 0 0 1 0 6z"/></symbol><symbol viewBox="0 0 24 24" id="eye-close-fill"><path fill="none" d="M0 0h24v24H0z"/><path d="M10.13 15.842l-.788 2.94-1.931-.518.787-2.939a10.988 10.988 0 0 1-3.237-1.872l-2.153 2.154-1.415-1.415 2.154-2.153a10.957 10.957 0 0 1-2.371-5.07l.9-.165A16.923 16.923 0 0 0 12 10c3.704 0 7.131-1.185 9.924-3.196l.9.164a10.957 10.957 0 0 1-2.37 5.071l2.153 2.153-1.415 1.415-2.153-2.154a10.988 10.988 0 0 1-3.237 1.872l.787 2.94-1.931.517-.788-2.94a11.072 11.072 0 0 1-3.74 0z"/></symbol><symbol viewBox="0 0 24 24" id="share-line"><path fill="none" d="M0 0h24v24H0z"/><path d="M13.12 17.023l-4.199-2.29a4 4 0 1 1 0-5.465l4.2-2.29a4 4 0 1 1 .959 1.755l-4.2 2.29a4.008 4.008 0 0 1 0 1.954l4.199 2.29a4 4 0 1 1-.959 1.755zM6 14a2 2 0 1 0 0-4 2 2 0 0 0 0 4zm11-6a2 2 0 1 0 0-4 2 2 0 0 0 0 4zm0 12a2 2 0 1 0 0-4 2 2 0 0 0 0 4z"/></symbol><symbol viewBox="0 0 24 24" id="thumb-up-line"><path fill="none" d="M0 0h24v24H0z"/><path d="M14.6 8H21a2 2 0 0 1 2 2v2.104a2 2 0 0 1-.15.762l-3.095 7.515a1 1 0 0 1-.925.619H2a1 1 0 0 1-1-1V10a1 1 0 0 1 1-1h3.482a1 1 0 0 0 .817-.423L11.752.85a.5.5 0 0 1 .632-.159l1.814.907a2.5 2.5 0 0 1 1.305 2.853L14.6 8zM7 10.588V19h11.16L21 12.104V10h-6.4a2 2 0 0 1-1.938-2.493l.903-3.548a.5.5 0 0 0-.261-.571l-.661-.33-4.71 6.672c-.25.354-.57.644-.933.858zM5 11H3v8h2v-8z"/></symbol><symbol viewBox="0 0 24 24" id="toggle-line"><path fill="none" d="M0 0h24v24H0z"/><path d="M8 7a5 5 0 1 0 0 10h8a5 5 0 0 0 0-10H8zm0-2h8a7 7 0 0 1 0 14H8A7 7 0 0 1 8 5zm0 10a3 3 0 1 1 0-6 3 3 0 0 1 0 6z"/></symbol><symbol viewBox="0 0 24 24" id="toggle-fill"><path fill="none" d="M0 0h24v24H0z"/><path d="M8 5h8a7 7 0 0 1 0 14H8A7 7 0 0 1 8 5zm8 10a3 3 0 1 0 0-6 3 3 0 0 0 0 6z"/></symbol><symbol viewBox="0 0 24 24" id="external-link-line"><path fill="none" d="M0 0h24v24H0z"/><path d="M10 6v2H5v11h11v-5h2v6a1 1 0 0 1-1 1H4a1 1 0 0 1-1-1V7a1 1 0 0 1 1-1h6zm11-3v8h-2V6.413l-7.793 7.794-1.414-1.414L17.585 5H13V3h8z"/></symbol></svg>