<?xml version="1.0" encoding="UTF-8"?>
<svg xmlns="http://www.w3.org/2000/svg" xmlns:xlink="http://www.w3.org/1999/xlink" width="px" height="px" viewBox="0 0 6 6" version="1.1">
<g id="surface1">
<path style=" stroke:none;fill-rule:nonzero;fill:rgb(0%,0%,0%);fill-opacity:1;" d="M 3 5 C 4.105469 5 5 4.105469 5 3 C 5 1.894531 4.105469 1 3 1 C 1.894531 1 1 1.894531 1 3 C 1 4.105469 1.894531 5 3 5 Z M 3 5.5 C 1.621094 5.5 0.5 4.378906 0.5 3 C 0.5 1.621094 1.621094 0.5 3 0.5 C 4.378906 0.5 5.5 1.621094 5.5 3 C 5.5 4.378906 4.378906 5.5 3 5.5 Z M 3 3.5 C 2.722656 3.5 2.5 3.277344 2.5 3 C 2.5 2.722656 2.722656 2.5 3 2.5 C 3.277344 2.5 3.5 2.722656 3.5 3 C 3.5 3.277344 3.277344 3.5 3 3.5 Z M 3 3.5 "/>
</g>
</svg>
